<svg xmlns="http://www.w3.org/2000/svg" xmlns:xlink="http://www.w3.org/1999/xlink" viewBox="0 0 524.03 152.87"><defs><style>.cls-1{fill:none;}.cls-2{clip-path:url(#clip-path);}.cls-3{fill:url(#未命名的渐变_504);}.cls-4{fill:url(#未命名的渐变_504-2);}.cls-5{fill:url(#未命名的渐变_504-29);}.cls-6{fill:url(#未命名的渐变_504-44);}.cls-7{fill:url(#未命名的渐变_504-72);}.cls-8{fill:#fff;}</style><clipPath id="clip-path"><circle class="cls-1" cx="81.74" cy="76.18" r="73.32"/></clipPath><radialGradient id="未命名的渐变_504" cx="201.41" cy="-515.18" r="131.4" gradientTransform="matrix(1, 0, 0, -1, -153.89, -489.96)" gradientUnits="userSpaceOnUse"><stop offset="0.03" stop-color="#fff"/><stop offset="0.92" stop-color="#fff"/></radialGradient><radialGradient id="未命名的渐变_504-2" cx="47.51" cy="-515.18" r="131.4" gradientTransform="matrix(1, 0, 0, -1, 0, -489.96)" xlink:href="#未命名的渐变_504"/><radialGradient id="未命名的渐变_504-29" cx="201.41" cy="-515.18" r="131.4" gradientTransform="matrix(1, 0, 0, -1, 0, -489.96)" xlink:href="#未命名的渐变_504"/><radialGradient id="未命名的渐变_504-44" cx="47.51" cy="-515.18" r="131.4" gradientTransform="matrix(1, 0, 0, -1, 0, -489.96)" xlink:href="#未命名的渐变_504"/><radialGradient id="未命名的渐变_504-72" cx="47.51" cy="-515.18" r="131.37" gradientTransform="matrix(1, 0, 0, -1, 0, -489.96)" xlink:href="#未命名的渐变_504"/></defs><title>资源 1</title><g id="图层_2" data-name="图层 2"><g id="图层_1-2" data-name="图层 1"><g class="cls-2"><path class="cls-3" d="M72.25,133.77q-4.42,0-4.42,3.28t4.42,3.28q4.42,0,4.42-3.28T72.25,133.77Zm2.67,4a1.25,1.25,0,0,1-.4.47,2,2,0,0,1-.64.26,4.89,4.89,0,0,1-.76.13H71.39a4.88,4.88,0,0,1-.76-.13,2.07,2.07,0,0,1-.65-.26,1.22,1.22,0,0,1-.41-.47,1.71,1.71,0,0,1,0-1.44,1.22,1.22,0,0,1,.41-.47,2.08,2.08,0,0,1,.65-.26,4.83,4.83,0,0,1,.76-.13h1.73a4.83,4.83,0,0,1,.76.13,2,2,0,0,1,.64.26,1.25,1.25,0,0,1,.4.47A1.71,1.71,0,0,1,74.92,137.77Z"/><polygon class="cls-4" points="76.45 141.45 74.89 141.45 74.89 142.74 67.81 142.74 67.81 144.49 76.45 144.49 76.45 141.45"/><path class="cls-3" d="M72.25,146.31q-4.42,0-4.42,3.28t4.42,3.28q4.42,0,4.42-3.28T72.25,146.31Zm2.67,4a1.25,1.25,0,0,1-.4.47,2,2,0,0,1-.64.26,4.9,4.9,0,0,1-.76.13H71.39a4.89,4.89,0,0,1-.76-.13,2.08,2.08,0,0,1-.65-.26,1.22,1.22,0,0,1-.41-.47,1.71,1.71,0,0,1,0-1.44,1.22,1.22,0,0,1,.41-.47,2.08,2.08,0,0,1,.65-.26,4.85,4.85,0,0,1,.76-.13h1.73a4.85,4.85,0,0,1,.76.13,2,2,0,0,1,.64.26,1.25,1.25,0,0,1,.4.47A1.71,1.71,0,0,1,74.92,150.31Z"/><path class="cls-3" d="M12.87,41.36q-4.42,0-4.42,3.28t4.42,3.28q4.42,0,4.42-3.28T12.87,41.36Zm2.68,4a1.25,1.25,0,0,1-.4.47,2,2,0,0,1-.64.26,4.9,4.9,0,0,1-.76.13H12a4.89,4.89,0,0,1-.76-.13,2.08,2.08,0,0,1-.65-.26,1.22,1.22,0,0,1-.41-.47,1.71,1.71,0,0,1,0-1.44,1.22,1.22,0,0,1,.41-.47,2.08,2.08,0,0,1,.65-.26,4.84,4.84,0,0,1,.76-.13h1.73a4.84,4.84,0,0,1,.76.13,2,2,0,0,1,.64.26,1.25,1.25,0,0,1,.4.47A1.71,1.71,0,0,1,15.55,45.36Z"/><polygon class="cls-4" points="17.07 49.03 15.51 49.03 15.51 50.33 8.41 50.33 8.41 52.08 17.07 52.08 17.07 49.03"/><path class="cls-3" d="M12.87,53.9q-4.42,0-4.42,3.28t4.42,3.28q4.42,0,4.42-3.28T12.87,53.9Zm2.68,4a1.25,1.25,0,0,1-.4.47,2,2,0,0,1-.64.26,4.88,4.88,0,0,1-.76.13H12a4.88,4.88,0,0,1-.76-.13,2.07,2.07,0,0,1-.65-.26,1.22,1.22,0,0,1-.41-.47,1.71,1.71,0,0,1,0-1.44,1.22,1.22,0,0,1,.41-.47,2.08,2.08,0,0,1,.65-.26A4.84,4.84,0,0,1,12,55.6h1.73a4.84,4.84,0,0,1,.76.13,2,2,0,0,1,.64.26,1.25,1.25,0,0,1,.4.47A1.71,1.71,0,0,1,15.55,57.9Z"/><polygon class="cls-4" points="17.07 61.57 15.51 61.57 15.51 62.87 8.41 62.87 8.41 64.62 17.07 64.62 17.07 61.57"/><path class="cls-3" d="M12.87,66.44q-4.42,0-4.42,3.28T12.87,73q4.42,0,4.42-3.28T12.87,66.44Zm2.68,4a1.25,1.25,0,0,1-.4.47,2,2,0,0,1-.64.26,4.9,4.9,0,0,1-.76.13H12a4.89,4.89,0,0,1-.76-.13,2.08,2.08,0,0,1-.65-.26,1.22,1.22,0,0,1-.41-.47,1.71,1.71,0,0,1,0-1.44,1.22,1.22,0,0,1,.41-.47,2.08,2.08,0,0,1,.65-.26,4.85,4.85,0,0,1,.76-.13h1.73a4.85,4.85,0,0,1,.76.13,2,2,0,0,1,.64.26,1.25,1.25,0,0,1,.4.47A1.71,1.71,0,0,1,15.55,70.44Z"/><path class="cls-3" d="M12.87,74.82q-4.42,0-4.42,3.28t4.42,3.28q4.42,0,4.42-3.28T12.87,74.82Zm2.68,4a1.25,1.25,0,0,1-.4.47,2,2,0,0,1-.64.26,4.9,4.9,0,0,1-.76.13H12a4.89,4.89,0,0,1-.76-.13,2.08,2.08,0,0,1-.65-.26,1.22,1.22,0,0,1-.41-.47,1.71,1.71,0,0,1,0-1.44,1.22,1.22,0,0,1,.41-.47,2.07,2.07,0,0,1,.65-.26,4.84,4.84,0,0,1,.76-.13h1.73a4.84,4.84,0,0,1,.76.13,2,2,0,0,1,.64.26,1.25,1.25,0,0,1,.4.47A1.71,1.71,0,0,1,15.55,78.82Z"/><polygon class="cls-4" points="17.07 82.5 15.51 82.5 15.51 83.79 8.41 83.79 8.41 85.55 17.07 85.55 17.07 82.5"/><polygon class="cls-4" points="17.07 87.17 15.51 87.17 15.51 88.46 8.41 88.46 8.41 90.22 17.07 90.22 17.07 87.17"/><path class="cls-3" d="M12.87,91.94q-4.42,0-4.42,3.28t4.42,3.28q4.42,0,4.42-3.28T12.87,91.94Zm2.68,4a1.25,1.25,0,0,1-.4.47,2,2,0,0,1-.64.26,4.87,4.87,0,0,1-.76.13H12a4.87,4.87,0,0,1-.76-.13,2.08,2.08,0,0,1-.65-.26,1.22,1.22,0,0,1-.41-.47,1.71,1.71,0,0,1,0-1.44,1.22,1.22,0,0,1,.41-.47,2.08,2.08,0,0,1,.65-.26,4.84,4.84,0,0,1,.76-.13h1.73a4.84,4.84,0,0,1,.76.13,2,2,0,0,1,.64.26,1.25,1.25,0,0,1,.4.47A1.71,1.71,0,0,1,15.55,95.94Z"/><polygon class="cls-4" points="17.07 99.61 15.51 99.61 15.51 100.9 8.41 100.9 8.41 102.66 17.07 102.66 17.07 99.61"/><path class="cls-3" d="M12.87,104.52q-4.42,0-4.42,3.28t4.42,3.28q4.42,0,4.42-3.28T12.87,104.52Zm2.68,4a1.25,1.25,0,0,1-.4.47,2,2,0,0,1-.64.26,4.88,4.88,0,0,1-.76.13H12a4.88,4.88,0,0,1-.76-.13,2.08,2.08,0,0,1-.65-.26,1.22,1.22,0,0,1-.41-.47,1.71,1.71,0,0,1,0-1.44,1.22,1.22,0,0,1,.41-.47,2.08,2.08,0,0,1,.65-.26,4.84,4.84,0,0,1,.76-.13h1.73a4.84,4.84,0,0,1,.76.13,2,2,0,0,1,.64.26,1.25,1.25,0,0,1,.4.47A1.71,1.71,0,0,1,15.55,108.52Z"/><polygon class="cls-4" points="76.45 124.34 74.89 124.34 74.89 125.63 67.81 125.63 67.81 127.38 76.45 127.38 76.45 124.34"/><polygon class="cls-4" points="67.81 130.29 67.81 132.05 76.45 132.05 76.45 129 74.89 129 74.89 130.29 67.81 130.29"/><polygon class="cls-4" points="96.06 3.74 94.48 3.74 94.48 5.03 87.41 5.03 87.41 6.79 96.06 6.79 96.06 3.74"/><path class="cls-3" d="M32.66,28.85q-4.42,0-4.42,3.29t4.42,3.28q4.42,0,4.42-3.28T32.66,28.85Zm2.68,4a1.25,1.25,0,0,1-.4.47,2,2,0,0,1-.64.26,4.88,4.88,0,0,1-.76.13H31.81a4.88,4.88,0,0,1-.76-.13,2.07,2.07,0,0,1-.65-.26,1.22,1.22,0,0,1-.41-.47,1.71,1.71,0,0,1,0-1.44,1.22,1.22,0,0,1,.41-.47,2.07,2.07,0,0,1,.65-.26,4.84,4.84,0,0,1,.76-.13h1.73a4.84,4.84,0,0,1,.76.13,2,2,0,0,1,.64.26,1.25,1.25,0,0,1,.4.47A1.71,1.71,0,0,1,35.34,32.85Z"/><path class="cls-3" d="M32.66,20.81q-4.42,0-4.42,3.28t4.42,3.28q4.42,0,4.42-3.28T32.66,20.81Zm2.68,4a1.25,1.25,0,0,1-.4.47,2,2,0,0,1-.64.26,4.89,4.89,0,0,1-.76.13H31.81a4.9,4.9,0,0,1-.76-.13,2.08,2.08,0,0,1-.65-.26,1.22,1.22,0,0,1-.41-.47,1.71,1.71,0,0,1,0-1.44,1.22,1.22,0,0,1,.41-.47,2.08,2.08,0,0,1,.65-.26,4.84,4.84,0,0,1,.76-.13h1.73a4.84,4.84,0,0,1,.76.13,2,2,0,0,1,.64.26,1.25,1.25,0,0,1,.4.47A1.71,1.71,0,0,1,35.34,24.81Z"/><polygon class="cls-4" points="36.87 36.53 35.28 36.53 35.28 37.82 28.2 37.82 28.2 39.58 36.87 39.58 36.87 36.53"/><polygon class="cls-4" points="36.87 41.2 35.28 41.2 35.28 42.49 28.2 42.49 28.2 44.25 36.87 44.25 36.87 41.2"/><path class="cls-3" d="M32.66,46q-4.42,0-4.42,3.28t4.42,3.28q4.42,0,4.42-3.28T32.66,46Zm2.68,4a1.25,1.25,0,0,1-.4.47,2,2,0,0,1-.64.26,4.88,4.88,0,0,1-.76.13H31.81a4.88,4.88,0,0,1-.76-.13,2.08,2.08,0,0,1-.65-.26A1.22,1.22,0,0,1,30,50a1.71,1.71,0,0,1,0-1.44,1.22,1.22,0,0,1,.41-.47,2.08,2.08,0,0,1,.65-.26,4.85,4.85,0,0,1,.76-.13h1.73a4.85,4.85,0,0,1,.76.13,2,2,0,0,1,.64.26,1.25,1.25,0,0,1,.4.47A1.71,1.71,0,0,1,35.34,50Z"/><path class="cls-3" d="M151.35,101q-4.42,0-4.42,3.28t4.42,3.28q4.42,0,4.42-3.28T151.35,101Zm2.68,4a1.25,1.25,0,0,1-.4.47,2,2,0,0,1-.64.26,4.9,4.9,0,0,1-.76.13H150.5a4.89,4.89,0,0,1-.76-.13,2.08,2.08,0,0,1-.65-.26,1.22,1.22,0,0,1-.41-.47,1.71,1.71,0,0,1,0-1.44,1.22,1.22,0,0,1,.41-.47,2.07,2.07,0,0,1,.65-.26,4.84,4.84,0,0,1,.76-.13h1.73a4.84,4.84,0,0,1,.76.13,2,2,0,0,1,.64.26,1.25,1.25,0,0,1,.4.47A1.71,1.71,0,0,1,154,105Z"/><path class="cls-3" d="M146.93,96.2q0,3.28,4.42,3.28t4.42-3.28q0-3.28-4.42-3.28T146.93,96.2Zm5.29-1.57a4.84,4.84,0,0,1,.76.13,2,2,0,0,1,.64.26,1.25,1.25,0,0,1,.4.47,1.71,1.71,0,0,1,0,1.44,1.25,1.25,0,0,1-.4.47,2,2,0,0,1-.64.26,4.88,4.88,0,0,1-.76.13h-1.73a4.88,4.88,0,0,1-.76-.13,2.08,2.08,0,0,1-.65-.26,1.22,1.22,0,0,1-.41-.47,1.71,1.71,0,0,1,0-1.44,1.22,1.22,0,0,1,.41-.47,2.08,2.08,0,0,1,.65-.26,4.84,4.84,0,0,1,.76-.13h.86c.33,0,.62,0,.87,0Z"/><polygon class="cls-4" points="155.54 108.63 153.97 108.63 153.97 109.92 146.9 109.92 146.9 111.68 155.54 111.68 155.54 108.63"/><polygon class="cls-4" points="155.54 113.3 153.97 113.3 153.97 114.59 146.9 114.59 146.9 116.35 155.54 116.35 155.54 113.3"/><path class="cls-3" d="M151.35,118.06q-4.42,0-4.42,3.28t4.42,3.28q4.42,0,4.42-3.28T151.35,118.06Zm2.68,4a1.25,1.25,0,0,1-.4.47,2,2,0,0,1-.64.26,4.9,4.9,0,0,1-.76.13H150.5a4.89,4.89,0,0,1-.76-.13,2.07,2.07,0,0,1-.65-.26,1.22,1.22,0,0,1-.41-.47,1.71,1.71,0,0,1,0-1.44,1.21,1.21,0,0,1,.41-.47,2.08,2.08,0,0,1,.65-.26,4.85,4.85,0,0,1,.76-.13h1.73a4.85,4.85,0,0,1,.76.13,2,2,0,0,1,.64.26,1.25,1.25,0,0,1,.4.47A1.71,1.71,0,0,1,154,122.06Z"/><path class="cls-3" d="M32.66,53.84q-4.42,0-4.42,3.28t4.42,3.28q4.42,0,4.42-3.28T32.66,53.84Zm2.68,4a1.25,1.25,0,0,1-.4.47,2,2,0,0,1-.64.26,4.87,4.87,0,0,1-.76.13H31.81a4.87,4.87,0,0,1-.76-.13,2.08,2.08,0,0,1-.65-.26,1.22,1.22,0,0,1-.41-.47,1.71,1.71,0,0,1,0-1.44,1.22,1.22,0,0,1,.41-.47,2.08,2.08,0,0,1,.65-.26,4.84,4.84,0,0,1,.76-.13h1.73a4.84,4.84,0,0,1,.76.13,2,2,0,0,1,.64.26,1.25,1.25,0,0,1,.4.47A1.71,1.71,0,0,1,35.34,57.84Z"/><polygon class="cls-5" points="36.87 61.52 35.28 61.52 35.28 62.81 28.2 62.81 28.2 64.56 36.87 64.56 36.87 61.52"/><path class="cls-3" d="M32.66,66.38q-4.42,0-4.42,3.28t4.42,3.28q4.42,0,4.42-3.28T32.66,66.38Zm2.68,4a1.25,1.25,0,0,1-.4.47,2,2,0,0,1-.64.26,4.88,4.88,0,0,1-.76.13H31.81a4.88,4.88,0,0,1-.76-.13,2.08,2.08,0,0,1-.65-.26,1.22,1.22,0,0,1-.41-.47,1.71,1.71,0,0,1,0-1.44,1.22,1.22,0,0,1,.41-.47,2.08,2.08,0,0,1,.65-.26,4.84,4.84,0,0,1,.76-.13h1.73a4.84,4.84,0,0,1,.76.13,2,2,0,0,1,.64.26,1.25,1.25,0,0,1,.4.47A1.71,1.71,0,0,1,35.34,70.38Z"/><polygon class="cls-4" points="36.87 74.06 35.28 74.06 35.28 75.35 28.2 75.35 28.2 77.11 36.87 77.11 36.87 74.06"/><path class="cls-3" d="M32.66,78.92q-4.42,0-4.42,3.28t4.42,3.28q4.42,0,4.42-3.28T32.66,78.92Zm2.68,4a1.25,1.25,0,0,1-.4.47,2,2,0,0,1-.64.26,4.89,4.89,0,0,1-.76.13H31.81a4.9,4.9,0,0,1-.76-.13,2.08,2.08,0,0,1-.65-.26,1.22,1.22,0,0,1-.41-.47,1.71,1.71,0,0,1,0-1.44A1.22,1.22,0,0,1,30.4,81a2.08,2.08,0,0,1,.65-.26,4.83,4.83,0,0,1,.76-.13h1.73a4.83,4.83,0,0,1,.76.13,2,2,0,0,1,.64.26,1.25,1.25,0,0,1,.4.47A1.71,1.71,0,0,1,35.34,82.92Z"/><polygon class="cls-5" points="36.87 86.6 35.28 86.6 35.28 87.89 28.2 87.89 28.2 89.65 36.87 89.65 36.87 86.6"/><path class="cls-3" d="M32.66,91.46q-4.42,0-4.42,3.28T32.66,98q4.42,0,4.42-3.28T32.66,91.46Zm2.68,4a1.25,1.25,0,0,1-.4.47,2,2,0,0,1-.64.26,4.89,4.89,0,0,1-.76.13H31.81a4.9,4.9,0,0,1-.76-.13,2.08,2.08,0,0,1-.65-.26,1.22,1.22,0,0,1-.41-.47A1.71,1.71,0,0,1,30,94a1.22,1.22,0,0,1,.41-.47,2.08,2.08,0,0,1,.65-.26,4.84,4.84,0,0,1,.76-.13h1.73a4.84,4.84,0,0,1,.76.13,2,2,0,0,1,.64.26,1.25,1.25,0,0,1,.4.47A1.71,1.71,0,0,1,35.34,95.46Z"/><path class="cls-3" d="M32.66,99.33q-4.42,0-4.42,3.28t4.42,3.28q4.42,0,4.42-3.28T32.66,99.33Zm2.68,4a1.25,1.25,0,0,1-.4.47,2,2,0,0,1-.64.26,4.88,4.88,0,0,1-.76.13H31.81a4.88,4.88,0,0,1-.76-.13,2.08,2.08,0,0,1-.65-.26,1.22,1.22,0,0,1-.41-.47,1.71,1.71,0,0,1,0-1.44,1.22,1.22,0,0,1,.41-.47,2.08,2.08,0,0,1,.65-.26,4.85,4.85,0,0,1,.76-.13h1.73a4.85,4.85,0,0,1,.76.13,2,2,0,0,1,.64.26,1.25,1.25,0,0,1,.4.47A1.71,1.71,0,0,1,35.34,103.33Z"/><path class="cls-3" d="M32.66,107.19q-4.42,0-4.42,3.28t4.42,3.28q4.42,0,4.42-3.28T32.66,107.19Zm2.68,4a1.25,1.25,0,0,1-.4.47,2,2,0,0,1-.64.26,4.88,4.88,0,0,1-.76.13H31.81a4.88,4.88,0,0,1-.76-.13,2.08,2.08,0,0,1-.65-.26,1.22,1.22,0,0,1-.41-.47,1.71,1.71,0,0,1,0-1.44,1.22,1.22,0,0,1,.41-.47A2.08,2.08,0,0,1,31,109a4.84,4.84,0,0,1,.76-.13h1.73a4.84,4.84,0,0,1,.76.13,2,2,0,0,1,.64.26,1.25,1.25,0,0,1,.4.47A1.71,1.71,0,0,1,35.34,111.19Z"/><polygon class="cls-4" points="36.87 114.61 35.28 114.61 35.28 115.9 28.2 115.9 28.2 117.65 36.87 117.65 36.87 114.61"/><path class="cls-3" d="M91.87,16.79q-4.42,0-4.42,3.28t4.42,3.28q4.42,0,4.42-3.28T91.87,16.79Zm2.68,4a1.25,1.25,0,0,1-.4.47,2,2,0,0,1-.64.26,4.89,4.89,0,0,1-.76.13H91a4.88,4.88,0,0,1-.76-.13,2.08,2.08,0,0,1-.65-.26,1.22,1.22,0,0,1-.41-.47,1.71,1.71,0,0,1,0-1.44,1.22,1.22,0,0,1,.41-.47,2.08,2.08,0,0,1,.65-.26,4.85,4.85,0,0,1,.76-.13h1.73a4.85,4.85,0,0,1,.76.13,2,2,0,0,1,.64.26,1.25,1.25,0,0,1,.4.47A1.71,1.71,0,0,1,94.55,20.79Z"/><path class="cls-3" d="M91.87,8.75q-4.42,0-4.42,3.28t4.42,3.28q4.42,0,4.42-3.28T91.87,8.75Zm2.68,4a1.25,1.25,0,0,1-.4.47,2,2,0,0,1-.64.26,4.9,4.9,0,0,1-.76.13H91a4.89,4.89,0,0,1-.76-.13,2.08,2.08,0,0,1-.65-.26,1.22,1.22,0,0,1-.41-.47,1.71,1.71,0,0,1,0-1.44,1.22,1.22,0,0,1,.41-.47,2.07,2.07,0,0,1,.65-.26,4.84,4.84,0,0,1,.76-.13h1.73a4.84,4.84,0,0,1,.76.13,2,2,0,0,1,.64.26,1.25,1.25,0,0,1,.4.47A1.71,1.71,0,0,1,94.55,12.75Z"/><polygon class="cls-4" points="96.06 24.47 94.5 24.47 94.5 25.76 87.42 25.76 87.42 27.52 96.06 27.52 96.06 24.47"/><polygon class="cls-4" points="87.42 30.43 87.42 32.19 96.06 32.19 96.06 29.14 94.5 29.14 94.5 30.43 87.42 30.43"/><path class="cls-3" d="M91.87,33.9q-4.42,0-4.42,3.28t4.42,3.28q4.42,0,4.42-3.28T91.87,33.9Zm2.68,4a1.25,1.25,0,0,1-.4.47,2,2,0,0,1-.64.26,4.89,4.89,0,0,1-.76.13H91a4.88,4.88,0,0,1-.76-.13,2.08,2.08,0,0,1-.65-.26,1.22,1.22,0,0,1-.41-.47,1.71,1.71,0,0,1,0-1.44,1.22,1.22,0,0,1,.41-.47,2.08,2.08,0,0,1,.65-.26A4.84,4.84,0,0,1,91,35.6h1.73a4.84,4.84,0,0,1,.76.13,2,2,0,0,1,.64.26,1.25,1.25,0,0,1,.4.47A1.71,1.71,0,0,1,94.55,37.9Z"/><path class="cls-3" d="M91.87,46.63q-4.42,0-4.42,3.28t4.42,3.28q4.42,0,4.42-3.28T91.87,46.63Zm2.68,4a1.25,1.25,0,0,1-.4.47,2,2,0,0,1-.64.26,4.87,4.87,0,0,1-.76.13H91a4.87,4.87,0,0,1-.76-.13,2.08,2.08,0,0,1-.65-.26,1.22,1.22,0,0,1-.41-.47,1.71,1.71,0,0,1,0-1.44,1.22,1.22,0,0,1,.41-.47,2.07,2.07,0,0,1,.65-.26,4.84,4.84,0,0,1,.76-.13h1.73a4.84,4.84,0,0,1,.76.13,2,2,0,0,1,.64.26,1.25,1.25,0,0,1,.4.47A1.71,1.71,0,0,1,94.55,50.63Z"/><polygon class="cls-6" points="96.06 44.98 96.06 41.94 94.5 41.94 94.5 43.23 87.42 43.23 87.42 44.98 96.06 44.98"/><path class="cls-3" d="M91.87,55q-4.42,0-4.42,3.28t4.42,3.28q4.42,0,4.42-3.28T91.87,55Zm2.68,4a1.25,1.25,0,0,1-.4.47,2,2,0,0,1-.64.26,4.9,4.9,0,0,1-.76.13H91a4.89,4.89,0,0,1-.76-.13,2.08,2.08,0,0,1-.65-.26A1.22,1.22,0,0,1,89.2,59a1.71,1.71,0,0,1,0-1.44,1.22,1.22,0,0,1,.41-.47,2.08,2.08,0,0,1,.65-.26,4.85,4.85,0,0,1,.76-.13h1.73a4.85,4.85,0,0,1,.76.13,2,2,0,0,1,.64.26,1.25,1.25,0,0,1,.4.47A1.71,1.71,0,0,1,94.55,59Z"/><path class="cls-3" d="M91.87,63.29q-4.42,0-4.42,3.28t4.42,3.28q4.42,0,4.42-3.28T91.87,63.29Zm2.68,4a1.25,1.25,0,0,1-.4.47,2,2,0,0,1-.64.26,4.9,4.9,0,0,1-.76.13H91a4.89,4.89,0,0,1-.76-.13,2.07,2.07,0,0,1-.65-.26,1.22,1.22,0,0,1-.41-.47,1.71,1.71,0,0,1,0-1.44,1.22,1.22,0,0,1,.41-.47,2.08,2.08,0,0,1,.65-.26A4.85,4.85,0,0,1,91,65h1.73a4.85,4.85,0,0,1,.76.13,2,2,0,0,1,.64.26,1.25,1.25,0,0,1,.4.47A1.71,1.71,0,0,1,94.55,67.29Z"/><polygon class="cls-4" points="96.06 80.94 96.06 77.89 94.5 77.89 94.5 79.18 87.42 79.18 87.42 80.94 96.06 80.94"/><polygon class="cls-4" points="96.06 75.62 96.06 72.57 94.5 72.57 94.5 73.86 87.42 73.86 87.42 75.62 96.06 75.62"/><path class="cls-3" d="M91.87,82.84q-4.42,0-4.42,3.28t4.42,3.28q4.42,0,4.42-3.28T91.87,82.84Zm2.68,4a1.25,1.25,0,0,1-.4.47,2,2,0,0,1-.64.26,4.9,4.9,0,0,1-.76.13H91a4.89,4.89,0,0,1-.76-.13,2.08,2.08,0,0,1-.65-.26,1.22,1.22,0,0,1-.41-.47,1.71,1.71,0,0,1,0-1.44,1.22,1.22,0,0,1,.41-.47,2.07,2.07,0,0,1,.65-.26,4.84,4.84,0,0,1,.76-.13h1.73a4.84,4.84,0,0,1,.76.13,2,2,0,0,1,.64.26,1.25,1.25,0,0,1,.4.47A1.71,1.71,0,0,1,94.55,86.84Z"/><polygon class="cls-4" points="96.06 118.65 96.06 115.6 94.5 115.6 94.5 116.89 87.42 116.89 87.42 118.65 96.06 118.65"/><path class="cls-3" d="M91.87,119.78q-4.42,0-4.42,3.28t4.42,3.28q4.42,0,4.42-3.28T91.87,119.78Zm2.68,4a1.25,1.25,0,0,1-.4.47,2,2,0,0,1-.64.26,4.88,4.88,0,0,1-.76.13H91a4.88,4.88,0,0,1-.76-.13,2.1,2.1,0,0,1-.65-.26,1.22,1.22,0,0,1-.41-.47,1.71,1.71,0,0,1,0-1.44,1.21,1.21,0,0,1,.41-.47,2.06,2.06,0,0,1,.65-.26,4.87,4.87,0,0,1,.76-.13h1.73a4.88,4.88,0,0,1,.76.13,2,2,0,0,1,.64.26,1.24,1.24,0,0,1,.4.47A1.71,1.71,0,0,1,94.55,123.78Z"/><polygon class="cls-4" points="96.06 130.42 96.06 127.37 94.5 127.37 94.5 128.66 87.42 128.66 87.42 130.42 96.06 130.42"/><path class="cls-3" d="M91.87,131.52q-4.42,0-4.42,3.28t4.42,3.28q4.42,0,4.42-3.28T91.87,131.52Zm2.68,4a1.25,1.25,0,0,1-.4.47,2,2,0,0,1-.64.26,4.89,4.89,0,0,1-.76.13H91a4.89,4.89,0,0,1-.76-.13,2.1,2.1,0,0,1-.65-.26,1.22,1.22,0,0,1-.41-.47,1.71,1.71,0,0,1,0-1.44,1.21,1.21,0,0,1,.41-.47,2.06,2.06,0,0,1,.65-.26,4.89,4.89,0,0,1,.76-.13h1.73a4.9,4.9,0,0,1,.76.13,2,2,0,0,1,.64.26,1.24,1.24,0,0,1,.4.47A1.71,1.71,0,0,1,94.55,135.52Z"/><polygon class="cls-4" points="96.06 142.19 96.06 139.14 94.5 139.14 94.5 140.43 87.42 140.43 87.42 142.19 96.06 142.19"/><path class="cls-3" d="M91.87,143.32q-4.42,0-4.42,3.28t4.42,3.28q4.42,0,4.42-3.28T91.87,143.32Zm2.68,4a1.25,1.25,0,0,1-.4.47,2,2,0,0,1-.64.26,4.89,4.89,0,0,1-.76.13H91a4.89,4.89,0,0,1-.76-.13,2.1,2.1,0,0,1-.65-.26,1.22,1.22,0,0,1-.41-.47,1.71,1.71,0,0,1,0-1.44,1.21,1.21,0,0,1,.41-.47,2.06,2.06,0,0,1,.65-.26A4.88,4.88,0,0,1,91,145h1.73a4.89,4.89,0,0,1,.76.13,2,2,0,0,1,.64.26,1.24,1.24,0,0,1,.4.47A1.71,1.71,0,0,1,94.55,147.32Z"/><path class="cls-3" d="M52.48,7.25q-4.42,0-4.42,3.28t4.42,3.28q4.42,0,4.42-3.28T52.48,7.25Zm2.67,4a1.25,1.25,0,0,1-.4.47,2,2,0,0,1-.64.26,4.88,4.88,0,0,1-.76.13H51.62a4.88,4.88,0,0,1-.76-.13,2.09,2.09,0,0,1-.65-.26,1.22,1.22,0,0,1-.41-.47,1.71,1.71,0,0,1,0-1.44,1.21,1.21,0,0,1,.41-.47,2.05,2.05,0,0,1,.65-.26A4.88,4.88,0,0,1,51.62,9h1.73a4.89,4.89,0,0,1,.76.13,2,2,0,0,1,.64.26,1.24,1.24,0,0,1,.4.47A1.71,1.71,0,0,1,55.15,11.25Z"/><polygon class="cls-4" points="56.67 19.32 55.1 19.32 55.1 20.61 48.02 20.61 48.02 22.37 56.67 22.37 56.67 19.32"/><polygon class="cls-5" points="56.67 14.9 55.1 14.9 55.1 16.19 48.02 16.19 48.02 17.95 56.67 17.95 56.67 14.9"/><path class="cls-3" d="M52.48,24.18q-4.42,0-4.42,3.28t4.42,3.28q4.42,0,4.42-3.28T52.48,24.18Zm2.67,4a1.25,1.25,0,0,1-.4.47,2,2,0,0,1-.64.26,4.89,4.89,0,0,1-.76.13H51.62a4.89,4.89,0,0,1-.76-.13,2.09,2.09,0,0,1-.65-.26,1.22,1.22,0,0,1-.41-.47,1.71,1.71,0,0,1,0-1.44,1.21,1.21,0,0,1,.41-.47,2.06,2.06,0,0,1,.65-.26,4.88,4.88,0,0,1,.76-.13h1.73a4.89,4.89,0,0,1,.76.13,2,2,0,0,1,.64.26,1.24,1.24,0,0,1,.4.47A1.71,1.71,0,0,1,55.15,28.18Z"/><polygon class="cls-4" points="56.67 131.27 55.1 131.27 55.1 132.56 48.02 132.56 48.02 134.31 56.67 134.31 56.67 131.27"/><path class="cls-3" d="M52.48,136.13q-4.42,0-4.42,3.28t4.42,3.28q4.42,0,4.42-3.28T52.48,136.13Zm2.67,4a1.25,1.25,0,0,1-.4.47,2,2,0,0,1-.64.26,4.88,4.88,0,0,1-.76.13H51.62a4.88,4.88,0,0,1-.76-.13,2.1,2.1,0,0,1-.65-.26,1.22,1.22,0,0,1-.41-.47,1.71,1.71,0,0,1,0-1.44,1.21,1.21,0,0,1,.41-.47,2.06,2.06,0,0,1,.65-.26,4.87,4.87,0,0,1,.76-.13h1.73a4.87,4.87,0,0,1,.76.13,2,2,0,0,1,.64.26,1.24,1.24,0,0,1,.4.47A1.71,1.71,0,0,1,55.15,140.13Z"/><path class="cls-3" d="M72.24,0q-4.42,0-4.42,3.28t4.42,3.28q4.42,0,4.42-3.28T72.24,0Zm2.68,4a1.25,1.25,0,0,1-.4.47,2,2,0,0,1-.64.26,4.89,4.89,0,0,1-.76.13H71.39a4.89,4.89,0,0,1-.76-.13A2.1,2.1,0,0,1,70,4.47,1.22,1.22,0,0,1,69.57,4a1.71,1.71,0,0,1,0-1.44A1.21,1.21,0,0,1,70,2.09a2.06,2.06,0,0,1,.65-.26,4.89,4.89,0,0,1,.76-.13h1.73a4.89,4.89,0,0,1,.76.13,2,2,0,0,1,.64.26,1.24,1.24,0,0,1,.4.47A1.71,1.71,0,0,1,74.92,4Z"/><polygon class="cls-4" points="76.44 12.36 74.86 12.36 74.86 13.65 67.78 13.65 67.78 15.41 76.44 15.41 76.44 12.36"/><polygon class="cls-4" points="76.44 7.85 74.86 7.85 74.86 9.15 67.78 9.15 67.78 10.9 76.44 10.9 76.44 7.85"/><path class="cls-3" d="M72.24,17.22q-4.42,0-4.42,3.28t4.42,3.28q4.42,0,4.42-3.28T72.24,17.22Zm2.68,4a1.25,1.25,0,0,1-.4.47,2,2,0,0,1-.64.26,4.89,4.89,0,0,1-.76.13H71.39a4.89,4.89,0,0,1-.76-.13,2.1,2.1,0,0,1-.65-.26,1.22,1.22,0,0,1-.41-.47,1.71,1.71,0,0,1,0-1.44,1.21,1.21,0,0,1,.41-.47,2.06,2.06,0,0,1,.65-.26,4.9,4.9,0,0,1,.76-.13h1.73a4.9,4.9,0,0,1,.76.13,2,2,0,0,1,.64.26,1.24,1.24,0,0,1,.4.47A1.71,1.71,0,0,1,74.92,21.22Z"/><polygon class="cls-4" points="76.44 24.72 74.86 24.72 74.86 26.01 67.78 26.01 67.78 27.77 76.44 27.77 76.44 24.72"/><path class="cls-3" d="M72.24,29.52q-4.42,0-4.42,3.28t4.42,3.28q4.42,0,4.42-3.28T72.24,29.52Zm2.68,4a1.25,1.25,0,0,1-.4.47,2,2,0,0,1-.64.26,4.89,4.89,0,0,1-.76.13H71.39a4.89,4.89,0,0,1-.76-.13A2.1,2.1,0,0,1,70,34a1.22,1.22,0,0,1-.41-.47,1.71,1.71,0,0,1,0-1.44,1.21,1.21,0,0,1,.41-.47,2.06,2.06,0,0,1,.65-.26,4.9,4.9,0,0,1,.76-.13h1.73a4.9,4.9,0,0,1,.76.13,2,2,0,0,1,.64.26,1.24,1.24,0,0,1,.4.47A1.71,1.71,0,0,1,74.92,33.52Z"/><polygon class="cls-4" points="76.44 37 74.86 37 74.86 38.29 67.78 38.29 67.78 40.04 76.44 40.04 76.44 37"/><path class="cls-3" d="M72.24,41.78q-4.42,0-4.42,3.28t4.42,3.28q4.42,0,4.42-3.28T72.24,41.78Zm2.68,4a1.25,1.25,0,0,1-.4.47,2,2,0,0,1-.64.26,4.88,4.88,0,0,1-.76.13H71.39a4.88,4.88,0,0,1-.76-.13,2.1,2.1,0,0,1-.65-.26,1.22,1.22,0,0,1-.41-.47,1.71,1.71,0,0,1,0-1.44,1.21,1.21,0,0,1,.41-.47,2.06,2.06,0,0,1,.65-.26,4.9,4.9,0,0,1,.76-.13h1.73a4.9,4.9,0,0,1,.76.13,2,2,0,0,1,.64.26,1.24,1.24,0,0,1,.4.47A1.71,1.71,0,0,1,74.92,45.78Z"/><polygon class="cls-4" points="76.44 49.27 74.86 49.27 74.86 50.56 67.78 50.56 67.78 52.32 76.44 52.32 76.44 49.27"/><path class="cls-3" d="M72.24,54.05q-4.42,0-4.42,3.28t4.42,3.28q4.42,0,4.42-3.28T72.24,54.05Zm2.68,4a1.25,1.25,0,0,1-.4.47,2,2,0,0,1-.64.26,4.88,4.88,0,0,1-.76.13H71.39a4.88,4.88,0,0,1-.76-.13,2.1,2.1,0,0,1-.65-.26,1.22,1.22,0,0,1-.41-.47,1.71,1.71,0,0,1,0-1.44,1.21,1.21,0,0,1,.41-.47,2.06,2.06,0,0,1,.65-.26,4.87,4.87,0,0,1,.76-.13h1.73a4.87,4.87,0,0,1,.76.13,2,2,0,0,1,.64.26,1.24,1.24,0,0,1,.4.47A1.71,1.71,0,0,1,74.92,58.05Z"/><polygon class="cls-7" points="76.44 61.55 74.86 61.55 74.86 62.84 67.78 62.84 67.78 64.6 76.44 64.6 76.44 61.55"/><path class="cls-3" d="M72.24,66.33q-4.42,0-4.42,3.28t4.42,3.28q4.42,0,4.42-3.28T72.24,66.33Zm2.68,4a1.25,1.25,0,0,1-.4.47,2,2,0,0,1-.64.26,4.89,4.89,0,0,1-.76.13H71.39a4.89,4.89,0,0,1-.76-.13A2.1,2.1,0,0,1,70,70.8a1.22,1.22,0,0,1-.41-.47,1.71,1.71,0,0,1,0-1.44,1.21,1.21,0,0,1,.41-.47,2.06,2.06,0,0,1,.65-.26,4.89,4.89,0,0,1,.76-.13h1.73a4.88,4.88,0,0,1,.76.13,2,2,0,0,1,.64.26,1.24,1.24,0,0,1,.4.47A1.71,1.71,0,0,1,74.92,70.33Z"/><polygon class="cls-4" points="76.44 73.82 74.86 73.82 74.86 75.12 67.78 75.12 67.78 76.87 76.44 76.87 76.44 73.82"/><path class="cls-3" d="M52.48,32.06q-4.42,0-4.42,3.28t4.42,3.28q4.42,0,4.42-3.28T52.48,32.06Zm2.67,4a1.25,1.25,0,0,1-.4.47,2,2,0,0,1-.64.26,4.89,4.89,0,0,1-.76.13H51.62a4.89,4.89,0,0,1-.76-.13,2.1,2.1,0,0,1-.65-.26,1.22,1.22,0,0,1-.41-.47,1.71,1.71,0,0,1,0-1.44,1.21,1.21,0,0,1,.41-.47,2.05,2.05,0,0,1,.65-.26,4.88,4.88,0,0,1,.76-.13h1.73a4.89,4.89,0,0,1,.76.13,2,2,0,0,1,.64.26,1.24,1.24,0,0,1,.4.47A1.71,1.71,0,0,1,55.15,36.06Z"/><path class="cls-3" d="M52.48,39.86q-4.42,0-4.42,3.28t4.42,3.28q4.42,0,4.42-3.28T52.48,39.86Zm2.67,4a1.25,1.25,0,0,1-.4.47,2,2,0,0,1-.64.26,4.87,4.87,0,0,1-.76.13H51.62a4.87,4.87,0,0,1-.76-.13,2.1,2.1,0,0,1-.65-.26,1.22,1.22,0,0,1-.41-.47,1.71,1.71,0,0,1,0-1.44,1.21,1.21,0,0,1,.41-.47,2.06,2.06,0,0,1,.65-.26,4.87,4.87,0,0,1,.76-.13h1.73a4.87,4.87,0,0,1,.76.13,2,2,0,0,1,.64.26,1.24,1.24,0,0,1,.4.47A1.71,1.71,0,0,1,55.15,43.86Z"/><path class="cls-3" d="M52.48,47.73q-4.42,0-4.42,3.28t4.42,3.28q4.42,0,4.42-3.28T52.48,47.73Zm2.67,4a1.25,1.25,0,0,1-.4.47,2,2,0,0,1-.64.26,4.89,4.89,0,0,1-.76.13H51.62a4.89,4.89,0,0,1-.76-.13,2.09,2.09,0,0,1-.65-.26,1.22,1.22,0,0,1-.41-.47,1.71,1.71,0,0,1,0-1.44,1.21,1.21,0,0,1,.41-.47,2.05,2.05,0,0,1,.65-.26,4.89,4.89,0,0,1,.76-.13h1.73a4.9,4.9,0,0,1,.76.13,2,2,0,0,1,.64.26,1.24,1.24,0,0,1,.4.47A1.71,1.71,0,0,1,55.15,51.73Z"/><polygon class="cls-4" points="56.67 55.2 55.1 55.2 55.1 56.49 48.02 56.49 48.02 58.25 56.67 58.25 56.67 55.2"/><path class="cls-3" d="M52.48,60.06q-4.42,0-4.42,3.28t4.42,3.28q4.42,0,4.42-3.28T52.48,60.06Zm2.67,4a1.25,1.25,0,0,1-.4.47,2,2,0,0,1-.64.26,4.89,4.89,0,0,1-.76.13H51.62a4.89,4.89,0,0,1-.76-.13,2.1,2.1,0,0,1-.65-.26,1.22,1.22,0,0,1-.41-.47,1.71,1.71,0,0,1,0-1.44,1.21,1.21,0,0,1,.41-.47,2.06,2.06,0,0,1,.65-.26,4.88,4.88,0,0,1,.76-.13h1.73a4.89,4.89,0,0,1,.76.13,2,2,0,0,1,.64.26,1.24,1.24,0,0,1,.4.47A1.71,1.71,0,0,1,55.15,64.06Z"/><path class="cls-3" d="M52.48,91.39q-4.42,0-4.42,3.28T52.48,98q4.42,0,4.42-3.28T52.48,91.39Zm2.67,4a1.25,1.25,0,0,1-.4.47,2,2,0,0,1-.64.26,4.88,4.88,0,0,1-.76.13H51.62a4.88,4.88,0,0,1-.76-.13,2.1,2.1,0,0,1-.65-.26,1.22,1.22,0,0,1-.41-.47,1.71,1.71,0,0,1,0-1.44,1.21,1.21,0,0,1,.41-.47,2.06,2.06,0,0,1,.65-.26,4.87,4.87,0,0,1,.76-.13h1.73a4.87,4.87,0,0,1,.76.13,2,2,0,0,1,.64.26,1.24,1.24,0,0,1,.4.47A1.71,1.71,0,0,1,55.15,95.39Z"/><path class="cls-3" d="M52.48,99.26q-4.42,0-4.42,3.28t4.42,3.28q4.42,0,4.42-3.28T52.48,99.26Zm2.67,4a1.25,1.25,0,0,1-.4.47,2,2,0,0,1-.64.26,4.88,4.88,0,0,1-.76.13H51.62a4.88,4.88,0,0,1-.76-.13,2.09,2.09,0,0,1-.65-.26,1.22,1.22,0,0,1-.41-.47,1.71,1.71,0,0,1,0-1.44,1.21,1.21,0,0,1,.41-.47,2.05,2.05,0,0,1,.65-.26,4.88,4.88,0,0,1,.76-.13h1.73a4.89,4.89,0,0,1,.76.13,2,2,0,0,1,.64.26,1.24,1.24,0,0,1,.4.47A1.71,1.71,0,0,1,55.15,103.26Z"/><polygon class="cls-5" points="56.67 106.73 55.1 106.73 55.1 108.02 48.02 108.02 48.02 109.78 56.67 109.78 56.67 106.73"/><path class="cls-3" d="M52.48,67.94q-4.42,0-4.42,3.28t4.42,3.28q4.42,0,4.42-3.28T52.48,67.94Zm2.67,4a1.25,1.25,0,0,1-.4.47,2,2,0,0,1-.64.26,4.89,4.89,0,0,1-.76.13H51.62a4.89,4.89,0,0,1-.76-.13,2.09,2.09,0,0,1-.65-.26,1.22,1.22,0,0,1-.41-.47,1.71,1.71,0,0,1,0-1.44,1.21,1.21,0,0,1,.41-.47,2.05,2.05,0,0,1,.65-.26,4.89,4.89,0,0,1,.76-.13h1.73a4.9,4.9,0,0,1,.76.13,2,2,0,0,1,.64.26,1.24,1.24,0,0,1,.4.47A1.71,1.71,0,0,1,55.15,71.94Z"/><path class="cls-3" d="M52.48,75.74q-4.42,0-4.42,3.28t4.42,3.28q4.42,0,4.42-3.28T52.48,75.74Zm2.67,4a1.25,1.25,0,0,1-.4.47,2,2,0,0,1-.64.26,4.88,4.88,0,0,1-.76.13H51.62a4.88,4.88,0,0,1-.76-.13,2.1,2.1,0,0,1-.65-.26,1.22,1.22,0,0,1-.41-.47,1.71,1.71,0,0,1,0-1.44,1.21,1.21,0,0,1,.41-.47,2.05,2.05,0,0,1,.65-.26,4.87,4.87,0,0,1,.76-.13h1.73a4.87,4.87,0,0,1,.76.13,2,2,0,0,1,.64.26,1.24,1.24,0,0,1,.4.47A1.71,1.71,0,0,1,55.15,79.74Z"/><path class="cls-3" d="M52.48,83.61q-4.42,0-4.42,3.28t4.42,3.28q4.42,0,4.42-3.28T52.48,83.61Zm2.67,4a1.25,1.25,0,0,1-.4.47,2,2,0,0,1-.64.26,4.89,4.89,0,0,1-.76.13H51.62a4.89,4.89,0,0,1-.76-.13,2.1,2.1,0,0,1-.65-.26,1.22,1.22,0,0,1-.41-.47,1.71,1.71,0,0,1,0-1.44,1.21,1.21,0,0,1,.41-.47,2.06,2.06,0,0,1,.65-.26,4.91,4.91,0,0,1,.76-.13h1.73a4.91,4.91,0,0,1,.76.13,2,2,0,0,1,.64.26,1.24,1.24,0,0,1,.4.47A1.71,1.71,0,0,1,55.15,87.61Z"/><path class="cls-3" d="M72.12,79q-4.42,0-4.42,3.28t4.42,3.28q4.42,0,4.42-3.28T72.12,79Zm2.68,4a1.25,1.25,0,0,1-.4.47,2,2,0,0,1-.64.26,4.89,4.89,0,0,1-.76.13H71.27a4.89,4.89,0,0,1-.76-.13,2.1,2.1,0,0,1-.65-.26,1.22,1.22,0,0,1-.41-.47,1.71,1.71,0,0,1,0-1.44,1.21,1.21,0,0,1,.41-.47,2.06,2.06,0,0,1,.65-.26,4.9,4.9,0,0,1,.76-.13H73a4.9,4.9,0,0,1,.76.13,2,2,0,0,1,.64.26,1.24,1.24,0,0,1,.4.47A1.71,1.71,0,0,1,74.8,83Z"/><path class="cls-3" d="M72.12,86.84q-4.42,0-4.42,3.28t4.42,3.28q4.42,0,4.42-3.28T72.12,86.84Zm2.68,4a1.25,1.25,0,0,1-.4.47,2,2,0,0,1-.64.26,4.88,4.88,0,0,1-.76.13H71.27a4.88,4.88,0,0,1-.76-.13,2.1,2.1,0,0,1-.65-.26,1.22,1.22,0,0,1-.41-.47,1.71,1.71,0,0,1,0-1.44,1.21,1.21,0,0,1,.41-.47,2.06,2.06,0,0,1,.65-.26,4.88,4.88,0,0,1,.76-.13H73a4.88,4.88,0,0,1,.76.13,2,2,0,0,1,.64.26,1.24,1.24,0,0,1,.4.47A1.71,1.71,0,0,1,74.8,90.84Z"/><path class="cls-3" d="M72.12,94.64q-4.42,0-4.42,3.28t4.42,3.28q4.42,0,4.42-3.28T72.12,94.64Zm2.68,4a1.25,1.25,0,0,1-.4.47,2,2,0,0,1-.64.26,4.9,4.9,0,0,1-.76.13H71.27a4.9,4.9,0,0,1-.76-.13,2.1,2.1,0,0,1-.65-.26,1.22,1.22,0,0,1-.41-.47,1.71,1.71,0,0,1,0-1.44,1.21,1.21,0,0,1,.41-.47,2.06,2.06,0,0,1,.65-.26,4.9,4.9,0,0,1,.76-.13H73a4.9,4.9,0,0,1,.76.13,2,2,0,0,1,.64.26,1.24,1.24,0,0,1,.4.47A1.71,1.71,0,0,1,74.8,98.64Z"/><polygon class="cls-4" points="116 103.1 114.42 103.1 114.42 104.39 107.33 104.39 107.33 106.14 116 106.14 116 103.1"/><path class="cls-3" d="M111.79,108q-4.42,0-4.42,3.28t4.42,3.28q4.42,0,4.42-3.28T111.79,108Zm2.68,4a1.25,1.25,0,0,1-.4.47,2,2,0,0,1-.64.26,4.89,4.89,0,0,1-.76.13h-1.73a4.89,4.89,0,0,1-.76-.13,2.1,2.1,0,0,1-.65-.26,1.22,1.22,0,0,1-.41-.47,1.71,1.71,0,0,1,0-1.44,1.21,1.21,0,0,1,.41-.47,2.06,2.06,0,0,1,.65-.26,4.9,4.9,0,0,1,.76-.13h1.73a4.9,4.9,0,0,1,.76.13,2,2,0,0,1,.64.26,1.24,1.24,0,0,1,.4.47A1.71,1.71,0,0,1,114.47,112Z"/><path class="cls-3" d="M111.79,116.13q-4.42,0-4.42,3.28t4.42,3.28q4.42,0,4.42-3.28T111.79,116.13Zm2.68,4a1.25,1.25,0,0,1-.4.47,2,2,0,0,1-.64.26,4.88,4.88,0,0,1-.76.13h-1.73a4.88,4.88,0,0,1-.76-.13,2.1,2.1,0,0,1-.65-.26,1.22,1.22,0,0,1-.41-.47,1.71,1.71,0,0,1,0-1.44,1.21,1.21,0,0,1,.41-.47,2.06,2.06,0,0,1,.65-.26,4.9,4.9,0,0,1,.76-.13h1.73a4.9,4.9,0,0,1,.76.13,2,2,0,0,1,.64.26,1.24,1.24,0,0,1,.4.47A1.71,1.71,0,0,1,114.47,120.13Z"/><path class="cls-3" d="M111.79,124.3q-4.42,0-4.42,3.28t4.42,3.28q4.42,0,4.42-3.28T111.79,124.3Zm2.68,4a1.25,1.25,0,0,1-.4.47,2,2,0,0,1-.64.26,4.88,4.88,0,0,1-.76.13h-1.73a4.88,4.88,0,0,1-.76-.13,2.1,2.1,0,0,1-.65-.26,1.22,1.22,0,0,1-.41-.47,1.71,1.71,0,0,1,0-1.44,1.21,1.21,0,0,1,.41-.47,2.06,2.06,0,0,1,.65-.26,4.89,4.89,0,0,1,.76-.13h1.73a4.89,4.89,0,0,1,.76.13,2,2,0,0,1,.64.26,1.24,1.24,0,0,1,.4.47A1.71,1.71,0,0,1,114.47,128.3Z"/><path class="cls-3" d="M111.79,132.52q-4.42,0-4.42,3.28t4.42,3.28q4.42,0,4.42-3.28T111.79,132.52Zm2.68,4a1.25,1.25,0,0,1-.4.47,2,2,0,0,1-.64.26,4.89,4.89,0,0,1-.76.13h-1.73a4.89,4.89,0,0,1-.76-.13,2.1,2.1,0,0,1-.65-.26,1.22,1.22,0,0,1-.41-.47,1.71,1.71,0,0,1,0-1.44,1.21,1.21,0,0,1,.41-.47,2.06,2.06,0,0,1,.65-.26,4.9,4.9,0,0,1,.76-.13h1.73a4.9,4.9,0,0,1,.76.13,2,2,0,0,1,.64.26,1.24,1.24,0,0,1,.4.47A1.71,1.71,0,0,1,114.47,136.52Z"/><path class="cls-3" d="M111.79,140.64q-4.42,0-4.42,3.28t4.42,3.28q4.42,0,4.42-3.28T111.79,140.64Zm2.68,4a1.25,1.25,0,0,1-.4.47,2,2,0,0,1-.64.26,4.88,4.88,0,0,1-.76.13h-1.73a4.88,4.88,0,0,1-.76-.13,2.1,2.1,0,0,1-.65-.26,1.22,1.22,0,0,1-.41-.47,1.71,1.71,0,0,1,0-1.44,1.21,1.21,0,0,1,.41-.47,2.06,2.06,0,0,1,.65-.26,4.9,4.9,0,0,1,.76-.13h1.73a4.9,4.9,0,0,1,.76.13,2,2,0,0,1,.64.26,1.24,1.24,0,0,1,.4.47A1.71,1.71,0,0,1,114.47,144.64Z"/><path class="cls-3" d="M111.79,15.1q4.42,0,4.42-3.28t-4.42-3.28q-4.42,0-4.42,3.28T111.79,15.1Zm-2.68-4a1.21,1.21,0,0,1,.41-.47,2.06,2.06,0,0,1,.65-.26,4.9,4.9,0,0,1,.76-.13h1.73a4.9,4.9,0,0,1,.76.13,2,2,0,0,1,.64.26,1.24,1.24,0,0,1,.4.47,1.71,1.71,0,0,1,0,1.44,1.25,1.25,0,0,1-.4.47,2,2,0,0,1-.64.26,4.89,4.89,0,0,1-.76.13h-1.73a4.89,4.89,0,0,1-.76-.13,2.1,2.1,0,0,1-.65-.26,1.22,1.22,0,0,1-.41-.47A1.71,1.71,0,0,1,109.11,11.1Z"/><path class="cls-3" d="M111.79,23q4.42,0,4.42-3.28t-4.42-3.28q-4.42,0-4.42,3.28T111.79,23Zm-2.68-4a1.21,1.21,0,0,1,.41-.47,2.06,2.06,0,0,1,.65-.26,4.88,4.88,0,0,1,.76-.13h1.73a4.89,4.89,0,0,1,.76.13,2,2,0,0,1,.64.26,1.24,1.24,0,0,1,.4.47,1.71,1.71,0,0,1,0,1.44,1.25,1.25,0,0,1-.4.47,2,2,0,0,1-.64.26,4.88,4.88,0,0,1-.76.13h-1.73a4.88,4.88,0,0,1-.76-.13,2.1,2.1,0,0,1-.65-.26,1.22,1.22,0,0,1-.41-.47A1.71,1.71,0,0,1,109.11,19Z"/><polygon class="cls-4" points="116 23.88 114.42 23.88 114.42 25.17 107.33 25.17 107.33 26.92 116 26.92 116 23.88"/><polygon class="cls-4" points="116 44.73 114.42 44.73 114.42 46.02 107.33 46.02 107.33 47.78 116 47.78 116 44.73"/><polygon class="cls-4" points="116 48.89 114.42 48.89 114.42 50.18 107.33 50.18 107.33 51.94 116 51.94 116 48.89"/><path class="cls-3" d="M111.79,28.74q-4.42,0-4.42,3.28t4.42,3.28q4.42,0,4.42-3.28T111.79,28.74Zm2.68,4a1.25,1.25,0,0,1-.4.47,2,2,0,0,1-.64.26,4.89,4.89,0,0,1-.76.13h-1.73a4.89,4.89,0,0,1-.76-.13,2.1,2.1,0,0,1-.65-.26,1.22,1.22,0,0,1-.41-.47,1.71,1.71,0,0,1,0-1.44,1.21,1.21,0,0,1,.41-.47,2.06,2.06,0,0,1,.65-.26,4.89,4.89,0,0,1,.76-.13h1.73a4.89,4.89,0,0,1,.76.13,2,2,0,0,1,.64.26,1.24,1.24,0,0,1,.4.47A1.71,1.71,0,0,1,114.47,32.74Z"/><path class="cls-3" d="M111.79,62.87q-4.42,0-4.42,3.28t4.42,3.28q4.42,0,4.42-3.28T111.79,62.87Zm2.68,4a1.25,1.25,0,0,1-.4.47,2,2,0,0,1-.64.26,4.88,4.88,0,0,1-.76.13h-1.73a4.88,4.88,0,0,1-.76-.13,2.1,2.1,0,0,1-.65-.26,1.22,1.22,0,0,1-.41-.47,1.71,1.71,0,0,1,0-1.44,1.21,1.21,0,0,1,.41-.47,2.06,2.06,0,0,1,.65-.26,4.9,4.9,0,0,1,.76-.13h1.73a4.9,4.9,0,0,1,.76.13,2,2,0,0,1,.64.26,1.24,1.24,0,0,1,.4.47A1.71,1.71,0,0,1,114.47,66.87Z"/><path class="cls-3" d="M111.79,54.05q-4.42,0-4.42,3.28t4.42,3.28q4.42,0,4.42-3.28T111.79,54.05Zm2.68,4a1.25,1.25,0,0,1-.4.47,2,2,0,0,1-.64.26,4.88,4.88,0,0,1-.76.13h-1.73a4.88,4.88,0,0,1-.76-.13,2.1,2.1,0,0,1-.65-.26,1.22,1.22,0,0,1-.41-.47,1.71,1.71,0,0,1,0-1.44,1.21,1.21,0,0,1,.41-.47,2.06,2.06,0,0,1,.65-.26,4.87,4.87,0,0,1,.76-.13h1.73a4.87,4.87,0,0,1,.76.13,2,2,0,0,1,.64.26,1.24,1.24,0,0,1,.4.47A1.71,1.71,0,0,1,114.47,58.05Z"/><path class="cls-3" d="M111.79,71.68q-4.42,0-4.42,3.28t4.42,3.28q4.42,0,4.42-3.28T111.79,71.68Zm2.68,4a1.25,1.25,0,0,1-.4.47,2,2,0,0,1-.64.26,4.89,4.89,0,0,1-.76.13h-1.73a4.89,4.89,0,0,1-.76-.13,2.1,2.1,0,0,1-.65-.26,1.22,1.22,0,0,1-.41-.47,1.71,1.71,0,0,1,0-1.44,1.21,1.21,0,0,1,.41-.47,2.06,2.06,0,0,1,.65-.26,4.88,4.88,0,0,1,.76-.13h1.73a4.89,4.89,0,0,1,.76.13,2,2,0,0,1,.64.26,1.24,1.24,0,0,1,.4.47A1.71,1.71,0,0,1,114.47,75.68Z"/><path class="cls-3" d="M111.79,36.61q-4.42,0-4.42,3.28t4.42,3.28q4.42,0,4.42-3.28T111.79,36.61Zm2.68,4a1.25,1.25,0,0,1-.4.47,2,2,0,0,1-.64.26,4.87,4.87,0,0,1-.76.13h-1.73a4.87,4.87,0,0,1-.76-.13,2.1,2.1,0,0,1-.65-.26,1.22,1.22,0,0,1-.41-.47,1.71,1.71,0,0,1,0-1.44,1.21,1.21,0,0,1,.41-.47,2.06,2.06,0,0,1,.65-.26,4.89,4.89,0,0,1,.76-.13h1.73a4.89,4.89,0,0,1,.76.13,2,2,0,0,1,.64.26,1.24,1.24,0,0,1,.4.47A1.71,1.71,0,0,1,114.47,40.61Z"/><polygon class="cls-5" points="135.81 89.98 134.24 89.98 134.24 91.27 127.16 91.27 127.16 93.03 135.81 93.03 135.81 89.98"/><path class="cls-3" d="M131.61,94.84q-4.42,0-4.42,3.28t4.42,3.28q4.42,0,4.42-3.28T131.61,94.84Zm2.68,4a1.25,1.25,0,0,1-.4.47,2,2,0,0,1-.64.26,4.87,4.87,0,0,1-.76.13h-1.73a4.87,4.87,0,0,1-.76-.13,2.08,2.08,0,0,1-.65-.26,1.22,1.22,0,0,1-.41-.47,1.71,1.71,0,0,1,0-1.44,1.22,1.22,0,0,1,.41-.47,2.08,2.08,0,0,1,.65-.26,4.82,4.82,0,0,1,.76-.13h1.73a4.83,4.83,0,0,1,.76.13,2,2,0,0,1,.64.26,1.25,1.25,0,0,1,.4.47A1.71,1.71,0,0,1,134.29,98.84Z"/><polygon class="cls-4" points="135.81 105.57 135.81 102.52 134.24 102.52 134.24 103.81 127.16 103.81 127.16 105.57 135.81 105.57"/><path class="cls-3" d="M131.61,107.38q-4.42,0-4.42,3.28t4.42,3.28q4.42,0,4.42-3.28T131.61,107.38Zm2.68,4a1.25,1.25,0,0,1-.4.47,2,2,0,0,1-.64.26,4.88,4.88,0,0,1-.76.13h-1.73a4.88,4.88,0,0,1-.76-.13,2.08,2.08,0,0,1-.65-.26,1.22,1.22,0,0,1-.41-.47,1.71,1.71,0,0,1,0-1.44,1.22,1.22,0,0,1,.41-.47,2.08,2.08,0,0,1,.65-.26,4.82,4.82,0,0,1,.76-.13h1.73a4.83,4.83,0,0,1,.76.13,2,2,0,0,1,.64.26,1.25,1.25,0,0,1,.4.47A1.71,1.71,0,0,1,134.29,111.38Z"/><polygon class="cls-5" points="135.81 117.93 135.81 114.88 134.24 114.88 134.24 116.17 127.16 116.17 127.16 117.93 135.81 117.93"/><path class="cls-3" d="M131.61,119.74q-4.42,0-4.42,3.28t4.42,3.28q4.42,0,4.42-3.28T131.61,119.74Zm2.68,4a1.25,1.25,0,0,1-.4.47,2,2,0,0,1-.64.26,4.88,4.88,0,0,1-.76.13h-1.73a4.88,4.88,0,0,1-.76-.13,2.08,2.08,0,0,1-.65-.26,1.22,1.22,0,0,1-.41-.47,1.71,1.71,0,0,1,0-1.44,1.22,1.22,0,0,1,.41-.47,2.08,2.08,0,0,1,.65-.26,4.85,4.85,0,0,1,.76-.13h1.73a4.85,4.85,0,0,1,.76.13,2,2,0,0,1,.64.26,1.25,1.25,0,0,1,.4.47A1.71,1.71,0,0,1,134.29,123.74Z"/><polygon class="cls-4" points="135.81 130.28 135.81 127.24 134.24 127.24 134.24 128.53 127.16 128.53 127.16 130.28 135.81 130.28"/><path class="cls-3" d="M150.67,79q4.42,0,4.42-3.28t-4.42-3.28q-4.42,0-4.42,3.28T150.67,79ZM148,75a1.22,1.22,0,0,1,.41-.47,2.08,2.08,0,0,1,.65-.26,4.83,4.83,0,0,1,.76-.13h1.73a4.82,4.82,0,0,1,.76.13,2,2,0,0,1,.64.26,1.25,1.25,0,0,1,.4.47,1.71,1.71,0,0,1,0,1.44,1.25,1.25,0,0,1-.4.47,2,2,0,0,1-.64.26,4.87,4.87,0,0,1-.76.13h-1.73a4.87,4.87,0,0,1-.76-.13,2.08,2.08,0,0,1-.65-.26,1.22,1.22,0,0,1-.41-.47A1.71,1.71,0,0,1,148,75Z"/><polygon class="cls-4" points="154.87 80.05 153.29 80.05 153.29 81.35 146.22 81.35 146.22 83.1 154.87 83.1 154.87 80.05"/><path class="cls-3" d="M155.09,88.2q0-3.28-4.42-3.28t-4.42,3.28q0,3.28,4.42,3.28T155.09,88.2Zm-6,1.46a2.08,2.08,0,0,1-.65-.26,1.22,1.22,0,0,1-.41-.47,1.71,1.71,0,0,1,0-1.44,1.22,1.22,0,0,1,.41-.47,2.08,2.08,0,0,1,.65-.26,4.84,4.84,0,0,1,.76-.13h1.73a4.84,4.84,0,0,1,.76.13A2,2,0,0,1,153,87a1.25,1.25,0,0,1,.4.47,1.71,1.71,0,0,1,0,1.44,1.25,1.25,0,0,1-.4.47,2,2,0,0,1-.64.26,4.88,4.88,0,0,1-.76.13h-1.73a4.88,4.88,0,0,1-.8-.13Z"/><polygon class="cls-4" points="135.79 26.87 134.22 26.87 134.22 28.16 127.14 28.16 127.14 29.92 135.79 29.92 135.79 26.87"/><path class="cls-3" d="M131.6,31.74q-4.42,0-4.42,3.28t4.42,3.28Q136,38.3,136,35T131.6,31.74Zm2.68,4a1.25,1.25,0,0,1-.4.47,2,2,0,0,1-.64.26,4.88,4.88,0,0,1-.76.13h-1.73a4.88,4.88,0,0,1-.76-.13,2.09,2.09,0,0,1-.65-.26,1.22,1.22,0,0,1-.41-.47,1.71,1.71,0,0,1,0-1.44,1.21,1.21,0,0,1,.41-.47,2.05,2.05,0,0,1,.65-.26,4.89,4.89,0,0,1,.76-.13h1.73a4.89,4.89,0,0,1,.76.13,2,2,0,0,1,.64.26,1.24,1.24,0,0,1,.4.47A1.71,1.71,0,0,1,134.28,35.74Z"/><path class="cls-3" d="M131.6,19.12q-4.42,0-4.42,3.28t4.42,3.28q4.42,0,4.42-3.28T131.6,19.12Zm2.68,4a1.25,1.25,0,0,1-.4.47,2,2,0,0,1-.64.26,4.88,4.88,0,0,1-.76.13h-1.73a4.88,4.88,0,0,1-.76-.13,2.09,2.09,0,0,1-.65-.26,1.22,1.22,0,0,1-.41-.47,1.71,1.71,0,0,1,0-1.44,1.21,1.21,0,0,1,.41-.47A2.05,2.05,0,0,1,130,21a4.89,4.89,0,0,1,.76-.13h1.73a4.89,4.89,0,0,1,.76.13,2,2,0,0,1,.64.26,1.24,1.24,0,0,1,.4.47A1.71,1.71,0,0,1,134.28,23.12Z"/><polygon class="cls-4" points="135.79 39.3 134.22 39.3 134.22 40.59 127.14 40.59 127.14 42.35 135.79 42.35 135.79 39.3"/><path class="cls-3" d="M131.6,44.16q-4.42,0-4.42,3.28t4.42,3.28q4.42,0,4.42-3.28T131.6,44.16Zm2.68,4a1.25,1.25,0,0,1-.4.47,2,2,0,0,1-.64.26,4.89,4.89,0,0,1-.76.13h-1.73a4.89,4.89,0,0,1-.76-.13,2.1,2.1,0,0,1-.65-.26,1.22,1.22,0,0,1-.41-.47,1.71,1.71,0,0,1,0-1.44,1.21,1.21,0,0,1,.41-.47A2.06,2.06,0,0,1,130,46a4.9,4.9,0,0,1,.76-.13h1.73a4.9,4.9,0,0,1,.76.13,2,2,0,0,1,.64.26,1.24,1.24,0,0,1,.4.47A1.71,1.71,0,0,1,134.28,48.16Z"/><path class="cls-3" d="M131.6,52q-4.42,0-4.42,3.28t4.42,3.28q4.42,0,4.42-3.28T131.6,52Zm2.68,4a1.25,1.25,0,0,1-.4.47,2,2,0,0,1-.64.26,4.88,4.88,0,0,1-.76.13h-1.73a4.88,4.88,0,0,1-.76-.13,2.1,2.1,0,0,1-.65-.26,1.22,1.22,0,0,1-.41-.47,1.71,1.71,0,0,1,0-1.44,1.21,1.21,0,0,1,.41-.47,2.06,2.06,0,0,1,.65-.26,4.87,4.87,0,0,1,.76-.13h1.73a4.87,4.87,0,0,1,.76.13,2,2,0,0,1,.64.26,1.24,1.24,0,0,1,.4.47A1.71,1.71,0,0,1,134.28,56Z"/><path class="cls-3" d="M109.1,83.41v-.06a1.21,1.21,0,0,1,.41-.47,1.81,1.81,0,0,1,.39-.18c.73-.63,1.47-1.26,2.19-1.9h-.32q-4.42,0-4.42,3.28a4,4,0,0,0,.07.77C108,84.36,108.53,83.88,109.1,83.41Z"/><path class="cls-3" d="M88.48,97,90,96a1.81,1.81,0,0,1-.38-.18,1.22,1.22,0,0,1-.41-.47,1.71,1.71,0,0,1,0-1.44,1.22,1.22,0,0,1,.41-.47,2.08,2.08,0,0,1,.65-.26A4.85,4.85,0,0,1,91,93h1.73a4.85,4.85,0,0,1,.76.13,2.51,2.51,0,0,1,.37.12l1.43-1a5.25,5.25,0,0,0-3.43-.94q-4.42,0-4.42,3.28A2.89,2.89,0,0,0,88.48,97Z"/><path class="cls-3" d="M51.14,118.06q2.84-1.1,5.65-2.3a3.88,3.88,0,0,0,.1-.88q0-3.28-4.42-3.28T48,114.88C48.06,116.71,49.1,117.76,51.14,118.06Zm-1.34-3.89a1.21,1.21,0,0,1,.41-.47,2.06,2.06,0,0,1,.65-.26,4.88,4.88,0,0,1,.76-.13h1.73a4.89,4.89,0,0,1,.76.13,2,2,0,0,1,.64.26,1.24,1.24,0,0,1,.4.47,1.71,1.71,0,0,1,0,1.44,1.25,1.25,0,0,1-.4.47,2,2,0,0,1-.64.26,4.87,4.87,0,0,1-.76.13H51.62a4.87,4.87,0,0,1-.76-.13,2.1,2.1,0,0,1-.65-.26,1.22,1.22,0,0,1-.41-.47A1.71,1.71,0,0,1,49.8,114.17Z"/><path class="cls-3" d="M29.53,124.66q2.29-.52,4.57-1.11a4.83,4.83,0,0,1-.61.1H31.76a4.89,4.89,0,0,1-.76-.13,2.1,2.1,0,0,1-.65-.26,1.22,1.22,0,0,1-.41-.47,1.71,1.71,0,0,1,0-1.44,1.21,1.21,0,0,1,.41-.47,2.06,2.06,0,0,1,.65-.26,4.9,4.9,0,0,1,.76-.13h1.73a4.9,4.9,0,0,1,.76.13,2,2,0,0,1,.64.26,1.24,1.24,0,0,1,.4.47,1.71,1.71,0,0,1,0,1.44,1.25,1.25,0,0,1-.4.47,1.7,1.7,0,0,1-.35.17l2.43-.66a4.07,4.07,0,0,0,.06-.71q0-3.28-4.42-3.28t-4.42,3.28A2.83,2.83,0,0,0,29.53,124.66Z"/><path class="cls-3" d="M69.18,108.52l2-1.11a4.89,4.89,0,0,1-.68-.11,2.1,2.1,0,0,1-.65-.26,1.22,1.22,0,0,1-.41-.47,1.71,1.71,0,0,1,0-1.44,1.21,1.21,0,0,1,.41-.47,2.06,2.06,0,0,1,.65-.26,4.9,4.9,0,0,1,.76-.13H73a4.9,4.9,0,0,1,.76.13,2,2,0,0,1,.64.26,1.24,1.24,0,0,1,.4.47,1.33,1.33,0,0,1,.07.19l1.43-.83c-.53-1.29-1.91-1.94-4.17-1.94q-4.42,0-4.42,3.28A2.82,2.82,0,0,0,69.18,108.52Z"/><path class="cls-3" d="M132.66,61.28h-5.51V63h3.8Z"/></g><path class="cls-8" d="M166.48,19.52c-4.16,6.62-8,13.41-12.41,19.88a239.38,239.38,0,0,1-16,21.26A224.94,224.94,0,0,1,99.35,97.12a206.86,206.86,0,0,1-22.49,14.4,190.44,190.44,0,0,1-24.33,11.21,147.88,147.88,0,0,1-25.85,7.17,80.42,80.42,0,0,1-13.26,1.24,33.33,33.33,0,0,1-6.47-.56,13,13,0,0,1-2.85-.93,2.69,2.69,0,0,1-1.53-1.47l-2.48.18a4.22,4.22,0,0,0,.86,2.33,6.83,6.83,0,0,0,1.58,1.5A14.91,14.91,0,0,0,6,133.89a37,37,0,0,0,7.11,1.55,77.39,77.39,0,0,0,14.22.29,136.46,136.46,0,0,0,27.8-4.86,179.06,179.06,0,0,0,26.56-9.65,206.2,206.2,0,0,0,25-13.39q6-3.79,11.77-7.94t11.26-8.68a243.91,243.91,0,0,0,20.82-19.4q8.41-8.79,16-18.38Z"/><path class="cls-8" d="M3.78,125.72a1.14,1.14,0,0,1-.22,1.47,1,1,0,0,1-.8.17L.9,127.08a1,1,0,0,1-.72-.4,1.14,1.14,0,0,1,.22-1.47,1,1,0,0,1,.8-.17l1.86.28A1,1,0,0,1,3.78,125.72Zm-2.71,0c-.26,0-.42.09-.44.27a.35.35,0,0,0,.34.39l1.92.29c.26,0,.41-.09.44-.27s-.08-.35-.34-.39Z"/><path class="cls-8" d="M4.24,124.37l-3-.55.4.77-.77-.14-.43-.78L.55,123l3.82.69Z"/><path class="cls-8" d="M4.61,121.25a1.14,1.14,0,0,1-.29,1.45,1,1,0,0,1-.81.13l-1.85-.37A1,1,0,0,1,1,122a1.14,1.14,0,0,1,.29-1.45,1,1,0,0,1,.81-.13l1.85.37A1,1,0,0,1,4.61,121.25Zm-2.71-.14a.34.34,0,0,0-.44.19l0,.06a.36.36,0,0,0,.32.41l1.9.38A.34.34,0,0,0,4.1,122l0-.06a.36.36,0,0,0-.32-.41Z"/><path class="cls-8" d="M5.14,119.89l-3-.67.37.79-.76-.17-.4-.8.15-.67,3.79.84Z"/><path class="cls-8" d="M5.64,116.76a1.15,1.15,0,0,1-.35,1.44,1,1,0,0,1-.81.1l-1.84-.44A1,1,0,0,1,2,117.4,1.14,1.14,0,0,1,2.3,116a1,1,0,0,1,.81-.1L5,116.3A1,1,0,0,1,5.64,116.76Zm-2.7-.24a.34.34,0,0,0-.45.17l0,.07c0,.18,0,.36.31.42l1.89.45a.34.34,0,0,0,.45-.17l0-.07c0-.18,0-.36-.31-.42Z"/><path class="cls-8" d="M6.27,114.33a1.14,1.14,0,0,1-.38,1.44,1,1,0,0,1-.82.08l-1.82-.48a1,1,0,0,1-.67-.47A1.14,1.14,0,0,1,3,113.47a1,1,0,0,1,.82-.08l1.83.48A1,1,0,0,1,6.27,114.33ZM3.57,114a.34.34,0,0,0-.45.17l0,.06c0,.18,0,.36.3.43l1.88.49a.34.34,0,0,0,.45-.17l0-.06c0-.18,0-.36-.3-.43Z"/><path class="cls-8" d="M6.86,113l-3-.83.33.81-.75-.21-.35-.82.19-.66,3.74,1Z"/><path class="cls-8" d="M7.44,111l-3-.87.32.81L4,110.69l-.34-.82.2-.66,3.73,1.1Z"/><path class="cls-8" d="M8.15,107.9a1.14,1.14,0,0,1-.44,1.41,1,1,0,0,1-.82,0l-1.8-.57a1,1,0,0,1-.65-.5,1.14,1.14,0,0,1,.44-1.42,1,1,0,0,1,.82,0l1.8.56A1,1,0,0,1,8.15,107.9Zm-2.68-.42a.34.34,0,0,0-.46.15l0,.05c-.06.18,0,.36.28.44l1.85.58a.34.34,0,0,0,.46-.15l0-.05c.06-.18,0-.36-.28-.44Z"/><path class="cls-8" d="M8.81,106.58l-2.92-1,.29.82-.74-.25-.31-.83.22-.65L9,105.89Z"/><path class="cls-8" d="M9.63,103.52a1.14,1.14,0,0,1-.49,1.4,1,1,0,0,1-.82,0l-1.78-.62a1,1,0,0,1-.63-.52,1.14,1.14,0,0,1,.49-1.4,1,1,0,0,1,.82,0L9,103A1,1,0,0,1,9.63,103.52ZM7,103a.34.34,0,0,0-.28.62l.06,0,1.83.64a.34.34,0,0,0,.28-.62l-.06,0Z"/><path class="cls-8" d="M10.53,101.15a1.14,1.14,0,0,1-.51,1.39,1,1,0,0,1-.82,0l-1.77-.65a1,1,0,0,1-.62-.53A1.14,1.14,0,0,1,7.32,100a1,1,0,0,1,.82,0l1.77.65A1,1,0,0,1,10.53,101.15Zm-2.65-.55a.34.34,0,1,0-.23.64l1.82.67a.34.34,0,1,0,.23-.64h0Z"/><path class="cls-8" d="M146,25.06a3.57,3.57,0,0,1-4.55-.87,3,3,0,0,1-.43-2.52l1.11-5.79a3,3,0,0,1,1.33-2.19,3.57,3.57,0,0,1,4.55.87,3,3,0,0,1,.43,2.52l-1.11,5.79A3,3,0,0,1,146,25.06Zm.33-8.47a1.07,1.07,0,0,0-.64-1.37l-.17,0a1.07,1.07,0,0,0-1.27,1l-1.14,6a1.07,1.07,0,0,0,.64,1.37l.17,0c.58.11,1.11-.2,1.27-1Z"/><path class="cls-8" d="M150.21,26.8l2.49-9.29-2.51,1,.63-2.36,2.54-1.13,2.08.56L152.3,27.36Z"/><path class="cls-8" d="M156.34,28.68l3.31-9-2.6.83.84-2.29,2.63-.9,2,.74-4.17,11.4Z"/><path class="cls-8" d="M135.22,21.22a1.89,1.89,0,0,1,0-.22l.73-6c.1-.83.61-1.18,1.2-1.1s1,.53.9,1.36l-.73,6c-.09.72-.49,1.06-1,1.09q.78.79,1.54,1.61a2.7,2.7,0,0,0,.41-.24,3,3,0,0,0,1.18-2.28l.71-5.86a3,3,0,0,0-.6-2.49,3.58,3.58,0,0,0-4.6-.56,3,3,0,0,0-1.18,2.28l-.55,4.57C133.93,20,134.53,20.59,135.22,21.22Z"/><path class="cls-8" d="M127.6,14.7v-.4a1.06,1.06,0,0,1,1.13-1.18c.59,0,1,.47,1,1.3l-.11,1.85L131.68,18l.19-3.36a3,3,0,0,0-.76-2.45,3.57,3.57,0,0,0-4.63-.26,2.73,2.73,0,0,0-.86,1.37C126.3,13.75,127,14.22,127.6,14.7Z"/><path class="cls-8" d="M205.83,61.52V56.91h10.63a7,7,0,0,0,3.38-.54,2.74,2.74,0,0,0,1.22-2.44,3,3,0,0,0-1.43-2.75,5,5,0,0,0-2.58-.5h-4.32q-3.94,0-5.68-1.59a6.92,6.92,0,0,1-1.69-2.52,8.6,8.6,0,0,1-.61-3.25,9,9,0,0,1,1.43-5,5.84,5.84,0,0,1,4.46-2.56,30.52,30.52,0,0,1,3.1-.12h11.54v4.61H214.85a16.72,16.72,0,0,0-3.1.23q-1.57.43-1.57,2.63a2.46,2.46,0,0,0,1.32,2.48,6.67,6.67,0,0,0,2.93.46h3.73a12.47,12.47,0,0,1,4.25.54,5.64,5.64,0,0,1,3.42,3.25,10.79,10.79,0,0,1,.73,4,9,9,0,0,1-1,4.22,5.68,5.68,0,0,1-4.08,3.18,25.23,25.23,0,0,1-4,.23Z"/><path class="cls-8" d="M234.79,35.66V51.15a11.54,11.54,0,0,0,.28,2.89A4.25,4.25,0,0,0,236,55.8a5.27,5.27,0,0,0,4.08,1.59,6.26,6.26,0,0,0,2.91-.64A3.62,3.62,0,0,0,244.73,55a10.55,10.55,0,0,0,.49-3.87V35.66h4.95V50.88a18,18,0,0,1-.57,5A7.35,7.35,0,0,1,247.83,59q-2.75,2.67-7.81,2.67-5.4,0-7.88-2.63a7.33,7.33,0,0,1-1.78-3,17.89,17.89,0,0,1-.49-4.74V35.66Z"/><path class="cls-8" d="M292,35.66v4.61h-6.45a12.51,12.51,0,0,0-3.66.39A3.75,3.75,0,0,0,280,42.17a4.86,4.86,0,0,0-.71,1.55,18,18,0,0,0-.33,2.63H292V51H279q.28,3.33,1.78,4.63t5.09,1.3H292v4.63h-6.45a26.86,26.86,0,0,1-4.6-.35,7.75,7.75,0,0,1-5-3.06q-2.65-3.56-2.65-9.64,0-6.74,3.73-10.5a7.33,7.33,0,0,1,2.74-1.78,12.17,12.17,0,0,1,3.89-.5Z"/><path class="cls-8" d="M300.67,42.52v19h-4.74V35.66h6.34l9.24,19.25V35.66h4.71V61.52h-6.06Z"/><path class="cls-8" d="M329.53,46.15h11.4V61.52h-10.4a16.36,16.36,0,0,1-4.27-.45,7.36,7.36,0,0,1-2.88-1.57q-3.66-3.14-3.66-10.81a17.84,17.84,0,0,1,1.74-8.33A8.06,8.06,0,0,1,325,36.8a12.88,12.88,0,0,1,5.79-1.12h10.14v4.61h-9.59q-3.1,0-4.5,1.51-1.67,1.78-1.67,6.39a19,19,0,0,0,.44,4.26,6.88,6.88,0,0,0,1.2,2.83,3.73,3.73,0,0,0,1.83,1.24,9.22,9.22,0,0,0,2.88.39H336V50.79h-6.47Z"/><path class="cls-8" d="M366.21,40.2h-7.39V35.59h20V40.2h-7.7V61.42h-4.95Z"/><path class="cls-8" d="M441.13,46.09h11.4V61.43H442.14a16.36,16.36,0,0,1-4.27-.45A7.36,7.36,0,0,1,435,59.41q-3.66-3.14-3.66-10.81a17.84,17.84,0,0,1,1.74-8.33,8.06,8.06,0,0,1,3.52-3.56,12.88,12.88,0,0,1,5.79-1.12h10.15V40.2h-9.59q-3.1,0-4.5,1.51-1.67,1.78-1.67,6.39a19.06,19.06,0,0,0,.44,4.26,6.88,6.88,0,0,0,1.2,2.83,3.73,3.73,0,0,0,1.83,1.24,9.22,9.22,0,0,0,2.88.39h4.5V50.7h-6.48Z"/><path class="cls-8" d="M457.29,35.59h4.91V50.12q.1,2.75.21,3.64a2.92,2.92,0,0,0,1.53,2.42,11.21,11.21,0,0,0,4.53.64h4.74v4.61h-5.26a22.29,22.29,0,0,1-5.4-.46,7.09,7.09,0,0,1-4.88-5.42,26.57,26.57,0,0,1-.38-5.42Z"/><path class="cls-8" d="M468.28,54V42h4.95V54Z"/><path class="cls-8" d="M468.28,40v-4.2h4.95V40Z"/><path class="cls-8" d="M508.48,42.52V61.46h-4.74V35.59h6.34l9.24,19.25V35.59H524V61.42H518Z"/><path class="cls-8" d="M270.1,40.32V35.66H258.83A4.82,4.82,0,0,0,254,40.48h0v21h4.81V50.84H270.1V46.18H258.82V40.32Z"/><path class="cls-8" d="M412.3,42.52V61.46h-4.77V35.59h6.34l9.24,19.25V35.59h4.71V61.42h-6.06Z"/><polygon class="cls-8" points="491.6 35.59 485.92 35.59 476.3 61.42 482.08 61.42 488.77 41.83 495.44 61.42 501.21 61.42 491.6 35.59"/><circle class="cls-8" cx="206.87" cy="80.61" r="3.45"/><polygon class="cls-8" points="210.47 115.34 210.47 86.65 202.78 86.65 202.78 90.2 205.37 90.2 205.37 113.09 202.78 113.09 202.78 117.17 239.88 117.17 239.88 113.24 212.09 113.24 210.47 115.34"/><polygon class="cls-8" points="235.56 101.11 230.47 101.11 233.54 112.02 238.63 112.02 235.56 101.11"/><path class="cls-8" d="M229,78.11h-5.45v2.33H212.9v3.89h10.62V86h-3.08l-1.63,2.29V86h-5.13V99.86h5.13v-.92h4.71v13.35H229V98.94h4.74v.92h5.13V86H229V84.33h10.9V80.44H229Zm-5.45,17h-4.71V89.82h4.71Zm10.23-5.34v5.34H229V89.82Z"/><polygon class="cls-8" points="215.71 101.11 212.59 112.02 217.65 112.02 220.76 101.11 215.71 101.11"/><path class="cls-8" d="M324.25,106h5.45v5.52h5.42V106h5.41v1.75H337.2v1h.11a2.29,2.29,0,0,1,1.72.76,2.61,2.61,0,0,1,.73,1.87.24.24,0,0,1,0,.15h6.16V88h-7l5.77-6.26V78.11H321.42v3.62h16.5l-4.42,4.77L330.78,84h-6.62l4.35,4h-2.27l-1.95,2.48V88h-5.45v23.5h5.45Zm10.87-14.15h5.41v3.28h-5.45Zm0,7.29h5.41V102h-5.45Zm-10.87-7.29h5.45v3.28h-5.45Zm0,7.29h5.45V102h-5.45Z"/><polygon class="cls-8" points="316.63 115.34 316.63 86.65 308.95 86.65 308.95 90.2 311.54 90.2 311.54 113.09 308.95 113.09 308.95 117.17 346.06 117.17 346.06 113.24 318.26 113.24 316.63 115.34"/><circle class="cls-8" cx="313.67" cy="80.61" r="3.45"/><polygon class="cls-8" points="399.13 98.59 391.77 98.59 391.77 89.48 398.21 89.48 398.21 85.66 396.31 85.66 398.21 78.11 392.73 78.11 390.77 85.66 387.13 85.66 385.19 78.11 379.69 78.11 381.62 85.66 379.69 85.66 379.69 89.48 386.14 89.48 386.14 98.59 378.77 98.59 378.77 102.45 384.58 102.45 378.77 117.17 384.76 117.17 388.98 106.49 393.15 117.17 399.13 117.17 393.32 102.45 399.13 102.45 399.13 98.59"/><path class="cls-8" d="M362,81.88h1.17V110H362v3.85h9.84v3.28h5.24v-3.28h1.17V110h-1.17V81.88h1.17V78.1H362Zm6.37,0h3.47v6.87h-3.47Zm0,10.68h3.47v6.87h-3.47Zm0,10.64h3.47V110h-3.47Z"/><path class="cls-8" d="M278.25,82.72V78.15h-6.3v5.78a48.32,48.32,0,0,1-7.94.66h-7v4.54h7a52.8,52.8,0,0,0,7.94-.62v5.84A48.32,48.32,0,0,1,264,95h-7v4.51h7a52.81,52.81,0,0,0,7.94-.62v5a48.28,48.28,0,0,1-7.94.66h-7v4.54h7a52.78,52.78,0,0,0,7.94-.62v8.66h6.3v-9.82a48.35,48.35,0,0,1,8.15-.7h6.82v-4.54h-6.82a52.85,52.85,0,0,0-8.15.65v-5a48.33,48.33,0,0,1,8.15-.7h6.82V92.52h-6.82a52.82,52.82,0,0,0-8.15.65V87.33a48.3,48.3,0,0,1,8.15-.7h6.82V82.09h-6.82A52.79,52.79,0,0,0,278.25,82.72Z"/><path class="cls-8" d="M392.53,51.05c-6.06,0-11.18-2.48-12.69-5.84V48c1.32,3.2,6.51,5.6,12.69,5.6s11.37-2.4,12.69-5.6V45.21C403.75,48.52,398.64,51.05,392.53,51.05Z"/><path class="cls-8" d="M392.53,35.7c-7,0-12.69,3.33-12.69,7.44s5.68,7.44,12.69,7.44,12.69-3.33,12.69-7.44S399.58,35.7,392.53,35.7ZM390.86,38l1.67-1,1.67,1v.59l-1.67-1-1.67,1Zm0,.89,1.67-1,1.67,1v.59l-1.67-1-1.67,1Zm0,.89,1.67-1,1.67,1v.59l-1.67-1-1.67,1Zm0,1.26v-.37l1.67-1,1.67,1v.37h1.34l-3,1.77-3-1.77Zm-5.68,3.06v.79l-3-1.77,3-1.77v.79h.63l1.67,1-1.67,1Zm1.14,0,1.67-1-1.67-1h1l1.67,1-1.67,1Zm1.51,0,1.67-1-1.67-1h1l1.67,1-1.67,1Zm3.18-1-1.67-1h1l1.67,1-1.67,1h-1Zm3.2,5.1-1.67,1-1.67-1v-.59l1.67,1,1.67-1Zm0-.89-1.67,1-1.67-1v-.59l1.67,1,1.67-1Zm0-.89-1.67,1-1.67-1v-.59l1.67,1,1.67-1Zm0-1.26v.37l-1.67,1-1.67-1V45.2h-1.34l3-1.77,3,1.77Zm.52-1.09-1.67-1,1.67-1h1l-1.67,1,1.67,1Zm1.51,0-1.67-1,1.67-1h1l-1.67,1,1.67,1Zm1.51,0-1.67-1,1.67-1h1l-1.67,1,1.67,1Zm2.14.79v-.79h-.63l-1.67-1,1.67-1h.63v-.79l3,1.77Z"/><path class="cls-8" d="M392.53,54c-5.84,0-10.82-2.12-12.69-5.08v4.4c0,4.11,5.68,7.44,12.69,7.44s12.69-3.33,12.69-7.44v-4.4C403.39,51.9,398.4,54,392.53,54Zm.24,3.06c0,1,1.46,1.86,3.29,1.93v-.49l1.34.74-1.34.74v-.48a5.79,5.79,0,0,0-7.49,0V60l-1.34-.74,1.34-.74V59c1.83-.07,3.29-.9,3.29-1.93s-1.46-1.86-3.29-1.93v.48l-1.34-.74,1.34-.74v.5a5.79,5.79,0,0,0,7.49,0v-.5l1.34.74-1.34.74v-.48c-1.79,0-3.24.88-3.24,1.91Z"/></g></g></svg>
